<?xml version="1.0" encoding="utf-8"?>
<!-- Generator: Adobe Illustrator 25.4.1, SVG Export Plug-In . SVG Version: 6.00 Build 0)  -->
<svg version="1.1" baseProfile="basic" id="Layer_1"
	 xmlns="http://www.w3.org/2000/svg" xmlns:xlink="http://www.w3.org/1999/xlink" x="0px" y="0px" viewBox="0 0 62.79 62.45"
	 xml:space="preserve">
<path id="Path_1" style="fill:#6FA697;" d="M44.98,25c-3.24,0-6.32,1.37-8.5,3.76v-7.27C36.47,13,29.59,6.12,21.09,6.11H1.55v10.61
	c0.01,8.57,6.95,15.51,15.52,15.52h16.4v27.17c0,0.83,0.67,1.5,1.5,1.5s1.5-0.67,1.5-1.5V48.2h13.26c6.35-0.01,11.49-5.15,11.5-11.5
	V25L44.98,25z M17.08,29.24c-6.91-0.01-12.52-5.61-12.52-12.52V9.11h16.4c6.91,0.01,12.52,5.61,12.52,12.52v7.61L17.08,29.24z
	 M58.24,36.7c-0.01,4.69-3.81,8.49-8.5,8.5H36.48v-8.7c0.01-4.69,3.81-8.49,8.5-8.5h13.26V36.7z"/>
<path id="Path_2" style="fill:#6FA697;" d="M58.96,9.59V1.54h-8.04c-5.13,0-9.29,4.16-9.29,9.29v8.04h8.04
	C54.8,18.88,58.96,14.72,58.96,9.59z"/>
</svg>
