<?xml version="1.0" encoding="utf-8"?>
<!-- Generator: Adobe Illustrator 25.4.1, SVG Export Plug-In . SVG Version: 6.00 Build 0)  -->
<svg role="img" version="1.1" baseProfile="basic" id="Layer_1"
	 xmlns="http://www.w3.org/2000/svg" xmlns:xlink="http://www.w3.org/1999/xlink" x="0px" y="0px" viewBox="0 0 33 33"
	 xml:space="preserve">
<title>Check mark</title>
<g id="Subtraction_1" transform="translate(0 0)">
	<path d="M16.5,31.53c-4.01,0-7.79-1.56-10.63-4.4c-2.84-2.84-4.4-6.61-4.4-10.63c0-4.01,1.56-7.79,4.4-10.63
		s6.61-4.4,10.63-4.4c2.08,0,4.1,0.42,5.99,1.24c1.69,0.74,3.21,1.76,4.53,3.05l-9.57,9.57l-2.43-2.43
		c-0.74-0.74-1.72-1.15-2.77-1.15c-1.05,0-2.03,0.41-2.77,1.15c-1.53,1.53-1.53,4.01,0,5.54l5.09,5.09l0.02,0.02
		c0.01,0.01,0.01,0.01,0.02,0.02l0,0l0,0l0.01,0.01c0.72,0.72,1.69,1.12,2.71,1.12c1.03,0,1.99-0.4,2.72-1.13l0.05-0.05l2.44-2.44
		l8.47-8.47c0.34,1.26,0.51,2.56,0.51,3.88c0,4.02-1.56,7.79-4.4,10.63C24.29,29.97,20.51,31.53,16.5,31.53z"/>
	<path d="M16.5,31.06c3.89,0,7.55-1.51,10.3-4.26s4.26-6.41,4.26-10.3c0-1-0.1-1.99-0.3-2.95L20.4,23.91
		c-0.81,0.81-1.9,1.26-3.05,1.26c-1.15,0-2.23-0.45-3.05-1.26l-0.02-0.02c0,0-0.01-0.01-0.01-0.02l-5.11-5.11
		c-1.71-1.71-1.71-4.49,0-6.2c0.83-0.83,1.93-1.28,3.1-1.28s2.27,0.46,3.1,1.28l2.1,2.1l8.89-8.89c-1.19-1.1-2.55-1.98-4.04-2.63
		c-1.83-0.8-3.79-1.2-5.81-1.2c-3.89,0-7.55,1.51-10.3,4.26c-2.75,2.75-4.26,6.41-4.26,10.3c0,3.89,1.51,7.55,4.26,10.3
		C8.95,29.55,12.61,31.06,16.5,31.06 M16.5,32c-4.14,0-8.03-1.61-10.96-4.54C2.61,24.53,1,20.64,1,16.5c0-4.14,1.61-8.03,4.54-10.96
		S12.36,1,16.5,1c2.15,0,4.23,0.43,6.18,1.28c1.89,0.82,3.57,1.99,5,3.49L17.45,16l-2.76-2.76c-0.65-0.65-1.52-1.01-2.44-1.01
		c-0.92,0-1.79,0.36-2.44,1.01c-1.34,1.34-1.34,3.53,0,4.87l5.12,5.12c0,0,0.01,0.01,0.01,0.01c0,0,0.01,0.01,0.01,0.01
		c0.64,0.64,1.48,0.99,2.38,0.99s1.75-0.35,2.38-0.99l11.52-11.52c0.5,1.54,0.75,3.14,0.75,4.77c0,4.14-1.61,8.03-4.54,10.96
		C24.53,30.39,20.64,32,16.5,32z"/>
</g>
</svg>