<?xml version="1.0" encoding="utf-8"?>
<!-- Generator: Adobe Illustrator 25.4.1, SVG Export Plug-In . SVG Version: 6.00 Build 0)  -->
<svg version="1.1" baseProfile="basic" id="Layer_1"
	 xmlns="http://www.w3.org/2000/svg" xmlns:xlink="http://www.w3.org/1999/xlink" x="0px" y="0px" viewBox="0 0 67.38 67.01"
	 xml:space="preserve">
<g>
	<path id="Path_3" style="fill:#6FA697;" d="M58.03,33.3h-5.21V12.05c1.17-0.21,2.02-1.23,2.02-2.41V2.96c0-1.35-1.1-2.45-2.45-2.45
		h-6.68c-1.35,0-2.45,1.1-2.45,2.45v6.67c0,1.19,0.85,2.2,2.02,2.41V33.3h-5.21c-1.72,0-3.11,1.39-3.11,3.11v3.94
		c0,1.09,0.57,2.09,1.5,2.65v14.61c0,4.92,3.98,8.9,8.9,8.9l0,0h3.38c4.92,0,8.9-3.98,8.9-8.9v0V43c0.93-0.56,1.5-1.57,1.5-2.65
		v-3.94C61.14,34.69,59.75,33.3,58.03,33.3z M46.26,9.08V3.5h5.58v5.58h-2.02V33.3h-1.54V9.08H46.26z"/>
	<g id="Group_81" transform="translate(0 0.435)">
		<path id="Path_4" style="fill:#6FA697;" d="M22.24,65.9c-4.42,0-8-3.58-8-8c0-0.2,0.01-0.41,0.03-0.63
			c-0.02-0.2-0.03-0.38-0.03-0.56V26.57l-3.88-4.15c-2.65-2.83-4.12-6.56-4.12-10.43C6.25,5.65,11.38,0.51,17.72,0.5h1.5l0.02,11.96
			c1.74,1.44,4.26,1.44,6,0L25.18,0.5h1.51c6.36-0.01,11.53,5.13,11.55,11.49c0.01,3.88-1.47,7.61-4.12,10.43l-3.88,4.15V56.7
			c0,0.18-0.01,0.37-0.03,0.56c0.02,0.21,0.03,0.43,0.03,0.63C30.23,62.31,26.65,65.89,22.24,65.9z M16.22,3.64
			c-4.04,0.73-6.98,4.25-6.98,8.35c0,3.11,1.18,6.11,3.31,8.38l4.69,5.01V56.7c0,0.13,0.01,0.27,0.02,0.4l0.02,0.15l-0.02,0.15
			c-0.02,0.16-0.02,0.32-0.02,0.49c0,2.76,2.24,5,5,5s5-2.24,5-5c0-0.16-0.01-0.33-0.02-0.49l-0.02-0.15l0.02-0.15
			c0.01-0.13,0.02-0.27,0.02-0.4V25.39l4.69-5.01c2.13-2.27,3.31-5.27,3.31-8.38c-0.02-4.12-2.99-7.64-7.05-8.35l0.05,10.07
			l-0.41,0.44c-2.92,3.09-7.8,3.22-10.89,0.29c-0.1-0.1-0.2-0.19-0.29-0.29l-0.41-0.43L16.22,3.64z"/>
	</g>
	<g id="Group_82" transform="translate(12.994 54.336)">
		<ellipse id="Ellipse_36" style="fill:#6FA697;" cx="9.24" cy="3.51" rx="3.01" ry="3.01"/>
	</g>
</g>
</svg>
