<?xml version="1.0" encoding="utf-8"?>
<!-- Generator: Adobe Illustrator 25.4.1, SVG Export Plug-In . SVG Version: 6.00 Build 0)  -->
<svg version="1.1" baseProfile="basic" id="Layer_1"
	 xmlns="http://www.w3.org/2000/svg" xmlns:xlink="http://www.w3.org/1999/xlink" x="0px" y="0px" viewBox="0 0 67.38 67.01"
	 xml:space="preserve">
<path id="Path_8_00000133519265434364713820000018034918269774067118_" style="fill:#6FA697;" d="M50.49,10.93
	c-3.35-5.67-9.35-9.25-15.93-9.53c-0.58-0.02-1.16-0.02-1.74,0c-6.58,0.28-12.57,3.86-15.93,9.53c-3.5,5.82-3.82,13.01-0.85,19.12
	l6.51,13.41v16.91h0.17c0.7,3.07,3.43,5.25,6.58,5.25h8.98c3.15-0.01,5.88-2.18,6.58-5.25h0.17V43.01l6.29-12.96
	C54.31,23.94,53.99,16.75,50.49,10.93z M38.29,62.63h-8.98c-1.49,0-2.84-0.89-3.44-2.25h15.86C41.13,61.74,39.78,62.63,38.29,62.63
	L38.29,62.63z M42.04,57.37H25.55v-2.25h16.49L42.04,57.37z M25.55,52.12v-2.25h16.49v2.25H25.55z M42.04,44.61v2.25H25.55v-2.25
	H42.04z M48.64,28.73l-6.26,12.88H35.3V29.98c0.56-0.21,1.07-0.54,1.49-0.96l3.03-3.03c1.65-1.65,1.65-4.33,0-5.98l-3.03-3.03
	c-1.65-1.65-4.33-1.65-5.98,0c0,0,0,0,0,0l-3.03,3.03c-1.65,1.65-1.65,4.33,0,5.98l3.03,3.03c0.42,0.42,0.93,0.75,1.49,0.96v11.63
	h-7.31l-6.25-12.88c-2.53-5.2-2.25-11.32,0.73-16.27c2.81-4.82,7.89-7.87,13.47-8.07c0.5-0.02,1-0.02,1.5,0
	c5.58,0.2,10.67,3.24,13.47,8.07C50.89,17.42,51.16,23.54,48.64,28.73L48.64,28.73z"/>
</svg>
