<?xml version="1.0" encoding="utf-8"?>
<!-- Generator: Adobe Illustrator 25.4.1, SVG Export Plug-In . SVG Version: 6.00 Build 0)  -->
<svg version="1.1" baseProfile="basic" id="Layer_1"
	 xmlns="http://www.w3.org/2000/svg" xmlns:xlink="http://www.w3.org/1999/xlink" x="0px" y="0px" viewBox="0 0 67.38 67.01"
	 xml:space="preserve">
<g>
	<path id="Path_1" style="fill:#6FA697;" d="M47.28,27.28c-3.24,0-6.32,1.37-8.5,3.76v-7.27c-0.01-8.5-6.9-15.38-15.39-15.39H3.85
		V19c0.01,8.57,6.95,15.51,15.52,15.52h16.4v27.17c0,0.83,0.67,1.5,1.5,1.5s1.5-0.67,1.5-1.5V50.48h13.26
		c6.35-0.01,11.49-5.15,11.5-11.5v-11.7L47.28,27.28z M19.37,31.52c-6.91-0.01-12.52-5.61-12.52-12.52v-7.61h16.4
		C30.16,11.4,35.76,17,35.77,23.91v7.61L19.37,31.52z M60.53,38.98c-0.01,4.69-3.81,8.49-8.5,8.5H38.77v-8.7
		c0.01-4.69,3.81-8.49,8.5-8.5h13.26V38.98z"/>
	<path id="Path_2" style="fill:#6FA697;" d="M61.25,11.87V3.83h-8.04c-5.13,0-9.29,4.16-9.29,9.29v8.04h8.04
		C57.09,21.16,61.25,17,61.25,11.87z"/>
</g>
</svg>
